<?xml version="1.0"?>
<svg xmlns="http://www.w3.org/2000/svg" xmlns:xlink="http://www.w3.org/1999/xlink" xmlns:svgjs="http://svgjs.com/svgjs" version="1.1" width="512" height="512" x="0" y="0" viewBox="0 0 512 512" style="enable-background:new 0 0 512 512" xml:space="preserve" class=""><circle r="256" cx="256" cy="256" fill="#c1c8db" shape="circle"/><g transform="matrix(0.8,0,0,0.8,51.19999999999999,51.19999999999999)"><g><g><g><path d="m504.5 78.01v355.98c0 5.52-4.48 10-10 10h-477c-5.52 0-10-4.48-10-10v-355.98c0-5.52 4.48-10 10-10h477c5.52 0 10 4.48 10 10z" fill="#f2f2f2" data-original="#d1d0d8" class=""/><path d="m504.5 78.01v355.98c0 5.52-4.48 10-10 10h-119.78c110.64-95.77 108.18-318.45 105.57-375.98h14.21c5.52 0 10 4.48 10 10z" fill="#dcdce9" data-original="#aaaab2" class=""/><path d="m504.5 78.01v53.03h-497v-53.03c0-5.52 4.48-10 10-10h477c5.52 0 10 4.48 10 10z" fill="#9f8fbf" data-original="#898993" class=""/><path d="m504.5 78.01v53.03h-23.83c.82-27.46.23-49.69-.38-63.03h14.21c5.52 0 10 4.48 10 10z" fill="#412f59" data-original="#717177" class=""/></g><path d="m411.301 330.073h-310.602c-5.523 0-10-4.477-10-10v-142.073c0-5.523 4.477-10 10-10h310.602c5.523 0 10 4.477 10 10v142.073c0 5.523-4.477 10-10 10z" fill="#f2d399" data-original="#e8e6ed" class=""/><g><path d="m305.98 280.032v12.08c0 5.52-4.48 10-10 10h-79.96c-5.52 0-10-4.48-10-10v-12.08c0-5.52 4.48-10 10-10h79.96c5.52 0 10 4.48 10 10z" fill="#2fd92d" data-original="#2fd92d"/><path d="m305.98 280.032v12.08c0 5.52-4.48 10-10 10h-26.46c15.48-8.41 18.23-16.041 18.51-32.08h7.95c5.52 0 10 4.48 10 10z" fill="#1fbf33" data-original="#1fbf33"/></g><g><g><g><circle cx="157.097" cy="384.498" fill="#9f8fbf" r="26.94" data-original="#898993" class=""/><path d="m184.036 384.496c0 14.88-12.06 26.94-26.94 26.94-3.4 0-6.65-.63-9.64-1.79 10.11-3.87 17.29-13.67 17.29-25.15s-7.18-21.28-17.29-25.15c2.99-1.16 6.24-1.79 9.64-1.79 14.88 0 26.94 12.06 26.94 26.94z" fill="#412f59" data-original="#717177" class=""/></g></g><g><g><circle cx="256" cy="384.498" fill="#9f8fbf" r="26.94" data-original="#898993" class=""/><path d="m282.939 384.496c0 14.88-12.06 26.94-26.94 26.94-3.4 0-6.65-.63-9.64-1.79 10.11-3.87 17.29-13.67 17.29-25.15s-7.18-21.28-17.29-25.15c2.99-1.16 6.24-1.79 9.64-1.79 14.88 0 26.94 12.06 26.94 26.94z" fill="#412f59" data-original="#717177" class=""/></g></g><g><g><circle cx="354.903" cy="384.498" fill="#2fd92d" r="26.94" data-original="#2fd92d"/><path d="m381.842 384.496c0 14.88-12.06 26.94-26.94 26.94-3.4 0-6.65-.63-9.64-1.79 10.11-3.87 17.29-13.67 17.29-25.15s-7.18-21.28-17.29-25.15c2.99-1.16 6.24-1.79 9.64-1.79 14.88 0 26.94 12.06 26.94 26.94z" fill="#1fbf33" data-original="#1fbf33"/></g></g></g></g><g><path d="m504.5 181.399c4.142 0 7.5-3.358 7.5-7.5v-95.886c0-9.649-7.851-17.5-17.5-17.5h-477c-9.649 0-17.5 7.851-17.5 17.5v355.974c0 9.649 7.851 17.5 17.5 17.5h477c9.649 0 17.5-7.851 17.5-17.5v-225.566c0-4.142-3.358-7.5-7.5-7.5s-7.5 3.358-7.5 7.5v225.565c0 1.378-1.122 2.5-2.5 2.5h-477c-1.378 0-2.5-1.122-2.5-2.5v-295.445h132.457c4.142 0 7.5-3.358 7.5-7.5s-3.358-7.5-7.5-7.5h-132.457v-45.528c0-1.378 1.122-2.5 2.5-2.5h477c1.378 0 2.5 1.122 2.5 2.5v45.527h-316.333c-4.142 0-7.5 3.358-7.5 7.5s3.358 7.5 7.5 7.5h316.333v35.358c0 4.143 3.358 7.501 7.5 7.501z" fill="#000000" data-original="#000000" class=""/><path d="m47.433 92.027c-4.142 0-7.5 3.358-7.5 7.5s3.358 7.5 7.5 7.5h.113c4.142 0 7.5-3.358 7.5-7.5s-3.358-7.5-7.5-7.5z" fill="#000000" data-original="#000000" class=""/><path d="m70.076 92.027c-4.142 0-7.5 3.358-7.5 7.5s3.358 7.5 7.5 7.5h.113c4.142 0 7.5-3.358 7.5-7.5s-3.358-7.5-7.5-7.5z" fill="#000000" data-original="#000000" class=""/><path d="m92.719 92.027c-4.142 0-7.5 3.358-7.5 7.5s3.358 7.5 7.5 7.5h.113c4.142 0 7.5-3.358 7.5-7.5s-3.358-7.5-7.5-7.5z" fill="#000000" data-original="#000000" class=""/><path d="m464.567 107.027c4.142 0 7.5-3.358 7.5-7.5s-3.358-7.5-7.5-7.5h-13.956c-4.142 0-7.5 3.358-7.5 7.5s3.358 7.5 7.5 7.5z" fill="#000000" data-original="#000000" class=""/><path d="m428.801 320.073v-142.073c0-9.649-7.851-17.5-17.5-17.5h-36.428c-4.142 0-7.5 3.358-7.5 7.5s3.358 7.5 7.5 7.5h36.428c1.378 0 2.5 1.122 2.5 2.5v142.073c0 1.378-1.122 2.5-2.5 2.5h-310.602c-1.378 0-2.5-1.122-2.5-2.5v-142.073c0-1.378 1.122-2.5 2.5-2.5h239.652c4.142 0 7.5-3.358 7.5-7.5s-3.358-7.5-7.5-7.5h-239.652c-9.649 0-17.5 7.851-17.5 17.5v142.073c0 9.649 7.851 17.5 17.5 17.5h310.603c9.649 0 17.499-7.85 17.499-17.5z" fill="#000000" data-original="#000000" class=""/><path d="m216.023 262.535c-9.649 0-17.5 7.851-17.5 17.5v12.072c0 9.649 7.851 17.5 17.5 17.5h79.957c9.649 0 17.5-7.851 17.5-17.5v-12.072c0-9.649-7.851-17.5-17.5-17.5zm82.457 17.5v12.072c0 1.378-1.122 2.5-2.5 2.5h-79.957c-1.378 0-2.5-1.122-2.5-2.5v-12.072c0-1.378 1.122-2.5 2.5-2.5h79.957c1.378 0 2.5 1.122 2.5 2.5z" fill="#000000" data-original="#000000" class=""/><path d="m122.657 384.498c0 18.99 15.45 34.44 34.44 34.44s34.44-15.45 34.44-34.44-15.45-34.44-34.44-34.44-34.44 15.45-34.44 34.44zm53.88 0c0 10.719-8.721 19.44-19.44 19.44s-19.44-8.721-19.44-19.44 8.721-19.44 19.44-19.44 19.44 8.721 19.44 19.44z" fill="#000000" data-original="#000000" class=""/><path d="m221.56 384.498c0 18.99 15.45 34.44 34.44 34.44s34.44-15.45 34.44-34.44-15.45-34.44-34.44-34.44-34.44 15.45-34.44 34.44zm53.88 0c0 10.719-8.721 19.44-19.44 19.44s-19.44-8.721-19.44-19.44 8.721-19.44 19.44-19.44 19.44 8.721 19.44 19.44z" fill="#000000" data-original="#000000" class=""/><path d="m320.463 384.498c0 18.99 15.45 34.44 34.44 34.44s34.44-15.45 34.44-34.44-15.45-34.44-34.44-34.44-34.44 15.45-34.44 34.44zm53.88 0c0 10.719-8.721 19.44-19.44 19.44s-19.44-8.721-19.44-19.44 8.721-19.44 19.44-19.44 19.44 8.721 19.44 19.44z" fill="#000000" data-original="#000000" class=""/><path d="m357.5 241.333c0-4.142-3.358-7.5-7.5-7.5h-188c-4.142 0-7.5 3.358-7.5 7.5s3.358 7.5 7.5 7.5h188c4.142 0 7.5-3.357 7.5-7.5z" fill="#000000" data-original="#000000" class=""/><path d="m350 211.833h-80c-4.142 0-7.5 3.358-7.5 7.5s3.358 7.5 7.5 7.5h80c4.142 0 7.5-3.358 7.5-7.5s-3.358-7.5-7.5-7.5z" fill="#000000" data-original="#000000" class=""/><path d="m154.5 219.333c0 4.142 3.358 7.5 7.5 7.5h80c4.142 0 7.5-3.358 7.5-7.5s-3.358-7.5-7.5-7.5h-80c-4.142 0-7.5 3.358-7.5 7.5z" fill="#000000" data-original="#000000" class=""/><path d="m296.636 204.833c4.142 0 7.5-3.358 7.5-7.5s-3.358-7.5-7.5-7.5h-81.272c-4.142 0-7.5 3.358-7.5 7.5s3.358 7.5 7.5 7.5z" fill="#000000" data-original="#000000" class=""/></g></g></g></svg>
